<svg width="24" height="24" viewBox="0 0 24 24" fill="none" xmlns="http://www.w3.org/2000/svg">
<path d="M11 22C5.47715 22 1 17.5228 1 12C1 6.47715 5.47715 2 11 2C16.5228 2 21 6.47715 21 12C21 17.5228 16.5228 22 11 22ZM16 13.5C16 12.6716 15.3284 12 14.5 12H7.5C6.67157 12 6 12.6716 6 13.5V14C6 15.9714 7.85951 18 11 18C14.1405 18 16 15.9714 16 14V13.5ZM13.75 8.25C13.75 6.73122 12.5188 5.5 11 5.5C9.48122 5.5 8.25 6.73122 8.25 8.25C8.25 9.76878 9.48122 11 11 11C12.5188 11 13.75 9.76878 13.75 8.25Z" fill="#002F07"/>
</svg>
