<svg width="24" height="25" viewBox="0 0 24 25" fill="none" xmlns="http://www.w3.org/2000/svg">
<path fill-rule="evenodd" clip-rule="evenodd" d="M13.6799 4.19103C15.3057 2.33204 24 0 24 0C24 0 22.5221 9.29933 21.2215 10.7866C20.3015 11.8385 17.4716 11.2668 15.8941 10.8422C15.2016 11.9388 14.6161 13.153 14.3101 14.4196C14.2046 14.8564 13.7365 15.0733 13.2646 14.904C12.7928 14.7347 12.4958 14.2434 12.6013 13.8067C12.9548 12.3435 13.6217 10.9742 14.388 9.76761C13.689 8.41563 12.4671 5.57785 13.6799 4.19103ZM3.8803 15.8739H0V24.6046H3.8803V23.0915C4.50811 23.0699 5.16188 23.053 5.44007 23.0639C6.77054 23.1165 7.76417 23.4264 8.76875 23.7397C9.70594 24.0321 10.6528 24.3274 11.8918 24.4195C12.2031 24.4426 12.5061 24.4726 12.7998 24.5015C13.8608 24.6061 14.8011 24.6988 15.5784 24.4195C16.571 24.0628 22.2428 21.3517 22.9518 20.6382C23.6608 19.9248 23.3063 17.9984 21.1085 18.3552C20.024 18.5311 18.7669 19.0373 17.6268 19.4962C16.4563 19.9674 15.4091 20.3889 14.7985 20.3528C13.5933 20.2815 10.4029 19.7107 10.4029 19.7107L14.066 19.7542C14.066 19.7542 14.5835 19.7812 15.2948 19.2827C16.0061 18.7842 16.6419 17.3563 15.5784 17.3563C14.5149 17.3563 13.3806 16.9996 13.3806 16.9996L8.84312 16.0007C8.84312 16.0007 7.28335 15.7153 6.64529 16.0007C6.24043 16.1818 4.84583 16.6788 3.8803 17.0179V15.8739ZM2.92905 3.56147C2.92905 3.56147 9.38188 5.31046 10.5885 6.70474C11.4273 7.67408 10.6968 9.5884 10.1736 10.6653C10.8032 11.7019 11.3551 12.8327 11.7126 14.0113C11.8404 14.4323 11.606 14.8788 11.189 15.0085C10.772 15.1382 10.3305 14.9019 10.2027 14.4808C9.91135 13.5204 9.46513 12.5796 8.94264 11.6938C7.77139 12.0122 5.67357 12.4398 4.99123 11.6514C4.02594 10.536 2.92905 3.56147 2.92905 3.56147ZM15.5115 9.50284C15.1518 9.25227 15.0633 8.75763 15.3139 8.39793C16.738 6.35321 17.8697 5.02917 18.6565 4.20833C19.05 3.79783 19.3575 3.51297 19.5723 3.32677C19.6798 3.23359 19.764 3.1651 19.8243 3.11787C19.8544 3.09422 19.8787 3.07597 19.8967 3.06255L19.9192 3.04604L19.927 3.04041L19.9301 3.03827L19.9314 3.03739C19.9317 3.03723 19.9325 3.03652 20.3855 3.68148L19.9325 3.03652C20.2912 2.7846 20.7862 2.87111 21.0382 3.22978C21.2893 3.58734 21.2042 4.08023 20.8486 4.33294L20.8431 4.33699C20.8361 4.34215 20.8228 4.35223 20.8032 4.36755C20.7641 4.3981 20.7002 4.44985 20.6122 4.52613C20.4361 4.67868 20.164 4.92964 19.8025 5.30681C19.0793 6.06121 17.9992 7.31993 16.6164 9.30521C16.3658 9.66483 15.8712 9.75333 15.5115 9.50284ZM9.2979 9.58752C9.54697 9.94881 9.45871 10.4461 9.10067 10.6983C8.74271 10.9504 8.25062 10.8619 8.00156 10.5005C7.26366 9.42997 6.69165 8.75756 6.3152 8.36071C6.12709 8.16236 5.98796 8.03307 5.9016 7.95743C5.8585 7.91957 5.8285 7.89521 5.81223 7.88227C5.80485 7.87647 5.80025 7.87298 5.7985 7.87163C5.44713 7.61717 5.36395 7.12334 5.61349 6.76482C5.86454 6.40417 6.3571 6.31702 6.71371 6.57013L6.26114 7.22025C6.71371 6.57013 6.71339 6.56989 6.71371 6.57013L6.71482 6.57092L6.71601 6.5718L6.71863 6.57362L6.72474 6.57807L6.7407 6.58989C6.753 6.5991 6.76847 6.61101 6.78721 6.62585C6.82459 6.65537 6.87475 6.69665 6.93714 6.75133C7.06206 6.86078 7.2362 7.02404 7.45605 7.25588C7.89568 7.71932 8.51889 8.4573 9.2979 9.58752Z" fill="#1A942D"/>
</svg>
