<svg width="24" height="25" viewBox="0 0 24 25" fill="none" xmlns="http://www.w3.org/2000/svg">
<path d="M22.5125 12.0008L23.8389 9.70838C24.1705 9.13288 23.9735 8.39878 23.4004 8.06718L21.1056 6.74076V4.09755C21.1056 3.43314 20.5686 2.89608 19.9041 2.89608H17.2621L15.9369 0.602492C15.7771 0.327357 15.514 0.125511 15.2076 0.0426102C14.9001 -0.0414922 14.5721 0.00296214 14.2957 0.162757L12.0009 1.48917L9.70613 0.161555C9.13063 -0.17125 8.39654 0.0269914 8.06493 0.601291L6.73852 2.89608H4.0965C3.43209 2.89608 2.89504 3.43314 2.89504 4.09755V6.73956L0.600244 8.06598C0.323908 8.22577 0.123264 8.48889 0.0415644 8.79647C-0.0401351 9.10524 0.0031175 9.43204 0.161711 9.70838L1.48813 12.0008L0.161711 14.2932C0.00191604 14.5695 -0.0413364 14.8975 0.040363 15.2063C0.122062 15.5138 0.322707 15.777 0.599043 15.9356L2.89384 17.262V19.904C2.89384 20.5684 3.43089 21.1055 4.0953 21.1055H6.73852L8.06493 23.4002C8.22473 23.6754 8.48785 23.876 8.79542 23.9601C8.89755 23.9866 9.00087 24.001 9.1054 24.001C9.31445 24.001 9.52231 23.9457 9.70733 23.8388L11.9997 22.5124L14.2945 23.8388C14.5697 23.9986 14.8989 24.0406 15.2064 23.9589C15.514 23.8772 15.7771 23.6766 15.9357 23.4002L17.2609 21.1055H19.9029C20.5674 21.1055 21.1044 20.5684 21.1044 19.904V17.262L23.3992 15.9356C23.9735 15.6028 24.1705 14.8675 23.8377 14.2932L22.5125 12.0008ZM8.99607 5.98144C9.99088 5.98144 10.7983 6.78882 10.7983 7.78363C10.7983 8.77844 9.99088 9.58583 8.99607 9.58583C8.00125 9.58583 7.19387 8.77844 7.19387 7.78363C7.19387 6.78882 8.00125 5.98144 8.99607 5.98144ZM9.3565 17.5155L7.43416 16.0749L14.6429 6.46323L16.5653 7.90378L9.3565 17.5155ZM15.0034 17.9961C14.0086 17.9961 13.2012 17.1887 13.2012 16.1939C13.2012 15.1991 14.0086 14.3917 15.0034 14.3917C15.9982 14.3917 16.8056 15.1991 16.8056 16.1939C16.8056 17.1887 15.9982 17.9961 15.0034 17.9961Z" fill="#1A942D"/>
</svg>
