<svg width="24" height="20" viewBox="0 0 24 20" fill="none" xmlns="http://www.w3.org/2000/svg">
<path d="M7.8 12H22.2C22.53 12 22.8 11.73 22.8 11.4V1.8C22.8 1.47 22.53 1.2 22.2 1.2H16.8V6L15 4.8L13.2 6V1.2H7.8C7.47 1.2 7.2 1.47 7.2 1.8V11.4C7.2 11.73 7.47 12 7.8 12ZM23.4 14.4H4.8V0.6C4.8 0.27 4.53 0 4.2 0H0.6C0.27 0 0 0.27 0 0.6V1.8C0 2.13 0.27 2.4 0.6 2.4H2.4V16.2C2.4 16.53 2.67 16.8 3 16.8H6.10875C6.04125 16.9875 6 17.19 6 17.4C6 18.3937 6.80625 19.2 7.8 19.2C8.79375 19.2 9.6 18.3937 9.6 17.4C9.6 17.19 9.555 16.9875 9.49125 16.8H16.9125C16.845 16.9875 16.8038 17.19 16.8038 17.4C16.8038 18.3937 17.61 19.2 18.6038 19.2C19.5975 19.2 20.4037 18.3937 20.4037 17.4C20.4037 17.19 20.3588 16.9875 20.295 16.8H23.4C23.73 16.8 24 16.53 24 16.2V15C24 14.67 23.73 14.4 23.4 14.4Z" fill="#1A942D"/>
</svg>
