<svg width="397" height="395" viewBox="0 0 397 395" fill="none" xmlns="http://www.w3.org/2000/svg">
<path d="M21.9641 376.394C28.5207 388.566 42.4363 393.791 42.4363 393.791C42.4363 393.791 45.7214 379.281 39.1648 367.109C32.6081 354.937 18.6926 349.712 18.6926 349.712C18.6926 349.712 15.4075 364.222 21.9641 376.394Z" fill="#1A942D"/>
<path d="M26.4707 372.389C38.3081 379.518 42.8671 393.678 42.8671 393.678C42.8671 393.678 28.2338 396.28 16.3964 389.151C4.55896 382.022 0 367.862 0 367.862C0 367.862 14.6333 365.26 26.4707 372.389Z" fill="#1A942D"/>
<path d="M308.748 60.1543H307.694V69.9241H308.748V60.1543Z" fill="#F2F2F2"/>
<path d="M374.692 83.9189H373.637V93.6887H374.692V83.9189Z" fill="#F2F2F2"/>
<path d="M367.307 328.954H366.252V338.724H367.307V328.954Z" fill="#F2F2F2"/>
<path d="M382.605 248.156H381.551V257.926H382.605V248.156Z" fill="#F2F2F2"/>
<path d="M191.533 369.236H66.6162V368.336H190.634V324.705H77.1176L71.6032 313.205L72.4135 312.815L77.6832 323.805H191.533V369.236Z" fill="#0E3114"/>
<path d="M82.714 388.636C87.9255 388.636 92.1502 384.407 92.1502 379.19C92.1502 373.973 87.9255 369.744 82.714 369.744C77.5026 369.744 73.2778 373.973 73.2778 379.19C73.2778 384.407 77.5026 388.636 82.714 388.636Z" fill="#0E3114"/>
<path d="M175.728 388.636C180.939 388.636 185.164 384.407 185.164 379.19C185.164 373.973 180.939 369.744 175.728 369.744C170.516 369.744 166.292 373.973 166.292 379.19C166.292 384.407 170.516 388.636 175.728 388.636Z" fill="#0E3114"/>
<path d="M279.036 192.345C282.262 192.345 284.878 189.727 284.878 186.498C284.878 183.268 282.262 180.65 279.036 180.65C275.81 180.65 273.195 183.268 273.195 186.498C273.195 189.727 275.81 192.345 279.036 192.345Z" fill="#0E3114"/>
<path d="M204.365 311.446H63.9584L33.5776 212.039H235.653L235.469 212.624L204.365 311.446ZM64.6232 310.546H203.706L234.428 212.939H34.7923L64.6232 310.546Z" fill="#0E3114"/>
<path d="M193.406 306.273H70.0811L43.3965 218.111H220.886L220.725 218.63L193.406 306.273Z" fill="#F5FFF7"/>
<path d="M235.533 212.136L234.664 211.905L240.595 189.53H275.091V190.43H241.286L235.533 212.136Z" fill="#0E3114"/>
<path d="M225.555 242.176H43.3955V243.075H225.555V242.176Z" fill="#0E3114"/>
<path d="M215.124 275.318H53.5249V276.218H215.124V275.318Z" fill="#0E3114"/>
<path d="M135.062 212.489H134.164V310.996H135.062V212.489Z" fill="#0E3114"/>
<path d="M175.298 212.461L168.847 310.966L169.743 311.025L176.194 212.52L175.298 212.461Z" fill="#0E3114"/>
<path d="M93.9463 212.459L93.0498 212.518L99.4634 311.025L100.36 310.966L93.9463 212.459Z" fill="#0E3114"/>
<path d="M314.109 32.6762C314.109 32.6762 321.821 54.6483 317.075 58.0286C312.33 61.4089 333.093 89.0148 333.093 89.0148L358.008 82.2542L344.364 59.1553C344.364 59.1553 342.584 36.0565 342.584 32.6762C342.584 29.2959 314.109 32.6762 314.109 32.6762Z" fill="#FFB8B8"/>
<path d="M301.165 189.298C301.165 189.298 298.914 217.467 301.165 232.115C303.416 246.763 306.793 287.327 306.793 287.327C306.793 287.327 306.793 363.948 319.175 365.075C331.557 366.201 340.562 367.328 341.687 362.821C342.813 358.314 336.059 356.06 339.436 353.807C342.813 351.553 343.938 343.666 339.436 334.652C334.933 325.638 339.436 234.369 339.436 234.369L360.823 291.834C360.823 291.834 363.074 339.159 365.325 345.919C367.576 352.68 363.074 365.075 370.953 366.201C378.832 367.328 387.837 360.567 392.34 358.314C396.842 356.06 385.586 356.06 387.837 354.934C390.088 353.807 396.842 350.426 394.591 349.3C392.34 348.173 390.088 294.088 390.088 294.088C390.088 294.088 383.898 178.594 376.018 174.087C368.139 169.58 363.074 177.343 363.074 177.343L301.165 189.298Z" fill="#00FD27"/>
<path d="M321.426 360.567V369.582C321.426 369.582 311.296 394.085 321.426 394.085C331.557 394.085 339.436 396.624 339.436 393.244V362.821L321.426 360.567Z" fill="#153C1B"/>
<path d="M387.837 360.552V369.566C387.837 369.566 397.968 394.069 387.837 394.069C377.707 394.069 369.827 396.608 369.827 393.228V362.805L387.837 360.552Z" fill="#153C1B"/>
<path d="M329.868 49.015C341.058 49.015 350.129 39.9345 350.129 28.7331C350.129 17.5317 341.058 8.45117 329.868 8.45117C318.678 8.45117 309.607 17.5317 309.607 28.7331C309.607 39.9345 318.678 49.015 329.868 49.015Z" fill="#FFB8B8"/>
<path d="M323.677 66.4795C323.677 66.4795 329.305 83.3811 338.31 80.0008L347.315 76.6204L363.074 184.791C363.074 184.791 350.692 202.819 332.682 191.551C314.672 180.284 323.677 66.4795 323.677 66.4795Z" fill="#B3FFBE"/>
<path d="M339.436 63.0989L344.501 52.3945C344.501 52.3945 374.33 66.4792 378.832 70.9863C383.335 75.4934 383.335 82.254 383.335 82.254L375.456 110.423C375.456 110.423 377.707 172.396 377.707 174.649C377.707 176.903 385.586 189.297 379.958 184.79C374.33 180.283 373.204 175.776 368.702 182.537C364.2 189.297 354.069 197.185 354.069 197.185L339.436 63.0989Z" fill="#153C1B"/>
<path d="M378.832 144.227L375.456 175.776C375.456 175.776 355.195 193.805 359.697 194.931C364.199 196.058 366.451 191.551 366.451 191.551C366.451 191.551 374.33 199.438 378.832 194.931C383.335 190.424 394.591 147.607 394.591 147.607L378.832 144.227Z" fill="#FFB8B8"/>
<path d="M330.3 0.0685843C325.808 -0.092152 321.001 -0.171663 317.214 2.25131C315.472 3.4673 313.944 4.96491 312.692 6.68284C309.004 11.3504 305.817 17.2232 307.187 23.0144L308.778 22.3931C308.778 23.939 308.435 25.4655 307.773 26.8622C307.997 26.2099 308.747 27.2643 308.547 27.9241L306.794 33.6807C309.675 32.6232 313.26 34.7643 313.698 37.805C313.899 31.1186 314.592 23.4515 320.01 19.5364C322.742 17.562 326.201 16.9593 329.528 16.4241C332.597 15.9303 335.815 15.4595 338.755 16.471C341.695 17.4825 344.199 20.4924 343.532 23.5321C344.888 23.0647 346.404 24.0104 347.074 25.2794C347.744 26.5483 347.779 28.0452 347.799 29.4804C349.244 30.5027 350.889 28.4727 351.478 26.8023C352.86 22.8816 354.089 18.708 353.344 14.6176C352.599 10.5272 349.27 6.61817 345.116 6.6043C345.62 6.04997 345.889 5.32108 345.866 4.5718L342.443 4.28224C343.312 4.15905 344.111 3.73722 344.704 3.08899C343.329 4.603 332.522 0.148121 330.3 0.0685843Z" fill="#2F2E41"/>
<path d="M329.305 59.7192C329.305 59.7192 320.142 50.7305 316.844 51.2811C313.547 51.8317 309.044 59.7192 309.044 59.7192C309.044 59.7192 282.029 68.7333 283.155 77.7475C284.281 86.7617 296.662 130.706 296.662 130.706C296.662 130.706 306.793 183.664 297.788 189.298C288.783 194.932 340.561 209.58 341.687 202.819C342.812 196.059 345.064 128.452 341.687 118.311C338.31 108.17 329.305 59.7192 329.305 59.7192Z" fill="#153C1B"/>
<path d="M368.702 77.7471H382.62C382.62 77.7471 392.34 120.564 393.465 125.072C394.591 129.579 396.842 150.987 395.717 150.987C394.591 150.987 372.079 146.48 372.079 149.861L368.702 77.7471Z" fill="#153C1B"/>
<path d="M368.231 183.777H314.948C309.749 159.833 309.314 136.699 314.948 114.597H368.231C359.632 136.302 359.095 159.277 368.231 183.777Z" fill="#F2F2F2"/>
<path d="M293.286 154.367L309.044 161.128C309.044 161.128 339.436 165.635 339.436 153.241C339.436 140.846 309.044 147.607 309.044 147.607L298.913 144.364L293.286 154.367Z" fill="#FFB8B8"/>
<path d="M296.663 70.9873L283.155 74.3676L273.025 134.087C273.025 134.087 269.648 149.861 275.276 150.988C280.904 152.115 296.663 161.129 296.663 161.129C296.663 161.129 298.914 144.228 303.416 144.228L292.16 135.213L298.914 95.7763L296.663 70.9873Z" fill="#153C1B"/>
</svg>
