<svg width="395" height="396" viewBox="0 0 395 396" fill="none" xmlns="http://www.w3.org/2000/svg">
<path d="M333.812 347.579L287.943 310.699C303.413 293.568 317.483 269.175 330.939 241.595L376.808 278.475C358.479 302.137 342.953 325.36 333.812 347.579Z" fill="#42A953"/>
<path d="M333.824 308.314C341.301 308.314 347.362 301.424 347.362 292.925C347.362 284.425 341.301 277.535 333.824 277.535C326.348 277.535 320.287 284.425 320.287 292.925C320.287 301.424 326.348 308.314 333.824 308.314Z" fill="white"/>
<path d="M112.547 179.288H107.512C107.335 179.288 107.165 179.368 107.04 179.51C106.915 179.653 106.844 179.846 106.844 180.047V182.559C106.844 182.659 106.861 182.758 106.895 182.85C106.929 182.942 106.978 183.025 107.04 183.096C107.102 183.166 107.175 183.222 107.256 183.26C107.337 183.298 107.424 183.318 107.512 183.318H108.346V187.082H111.712V183.318H112.547C112.724 183.318 112.894 183.238 113.019 183.096C113.144 182.953 113.214 182.76 113.214 182.559V180.047C113.214 179.846 113.144 179.653 113.019 179.51C112.894 179.368 112.724 179.288 112.547 179.288Z" fill="#E6E6E6"/>
<path d="M117.59 202.28C114.506 197.151 112.93 191.044 113.087 184.834C113.089 184.69 113.049 184.55 112.971 184.438C112.893 184.325 112.784 184.246 112.66 184.214V183.129H107.343V184.199H107.27C107.198 184.199 107.127 184.216 107.061 184.247C106.995 184.278 106.935 184.324 106.884 184.382C106.833 184.439 106.793 184.508 106.766 184.583C106.739 184.658 106.725 184.739 106.725 184.82C106.725 184.835 106.725 184.851 106.726 184.866C107.217 191.202 105.713 197.531 102.482 202.725C102.295 203.028 102.2 203.392 102.21 203.761L102.792 224.207C102.806 224.663 102.974 225.096 103.262 225.414C103.549 225.732 103.934 225.912 104.335 225.916H116.363C116.769 225.912 117.158 225.728 117.446 225.403C117.735 225.079 117.9 224.639 117.908 224.177L118.132 204.326C118.138 203.597 117.949 202.884 117.59 202.28Z" fill="#42A953"/>
<path opacity="0.2" d="M111.497 180.106C111.497 180.541 111.345 180.957 111.075 181.264C110.805 181.571 110.439 181.744 110.057 181.744C109.675 181.744 109.309 181.571 109.039 181.264C108.768 180.957 108.617 180.541 108.617 180.106" fill="black"/>
<path d="M115.247 206.22H105.094V213.914H115.247V206.22Z" fill="white"/>
<path d="M271.88 259.162H262.455C262.124 259.162 261.806 259.312 261.572 259.578C261.337 259.845 261.206 260.206 261.206 260.583V265.285C261.206 265.662 261.337 266.023 261.572 266.29C261.806 266.556 262.124 266.706 262.455 266.706H264.017V273.752H270.318V266.706H271.88C272.212 266.706 272.529 266.556 272.764 266.29C272.998 266.023 273.13 265.662 273.13 265.285V260.583C273.13 260.206 272.998 259.845 272.764 259.578C272.529 259.312 272.212 259.162 271.88 259.162Z" fill="#E6E6E6"/>
<path d="M281.32 302.202C275.548 292.6 272.597 281.169 272.89 269.544C272.896 269.276 272.819 269.014 272.674 268.802C272.528 268.591 272.323 268.443 272.093 268.385V266.353H262.139V268.356H262.001C261.867 268.357 261.735 268.387 261.611 268.445C261.487 268.504 261.374 268.59 261.28 268.697C261.185 268.805 261.11 268.934 261.059 269.074C261.007 269.215 260.981 269.366 260.981 269.519C260.981 269.547 260.982 269.575 260.984 269.603C261.768 282.03 259.12 293.174 253.04 303.035C252.69 303.602 252.511 304.282 252.531 304.974L253.619 343.248C253.645 344.101 253.96 344.91 254.499 345.506C255.037 346.102 255.757 346.439 256.509 346.445H279.023C279.783 346.438 280.511 346.094 281.051 345.486C281.591 344.879 281.901 344.055 281.915 343.191L282.334 306.031C282.346 304.667 281.993 303.331 281.32 302.202Z" fill="#42A953"/>
<path opacity="0.2" d="M269.915 260.694C269.915 261.507 269.631 262.287 269.126 262.861C268.62 263.436 267.934 263.759 267.219 263.759C266.504 263.759 265.819 263.436 265.313 262.861C264.807 262.287 264.523 261.507 264.523 260.694" fill="black"/>
<path d="M277.756 314.915H258.159C257.869 314.915 257.582 314.986 257.319 315.124C257.055 315.262 256.821 315.463 256.632 315.713C256.443 315.963 256.304 316.257 256.224 316.574C256.145 316.891 256.126 317.224 256.17 317.55L259.132 339.432H276.137L279.734 317.624C279.788 317.293 279.778 316.954 279.704 316.628C279.629 316.303 279.493 316 279.304 315.742C279.116 315.483 278.879 315.275 278.611 315.132C278.344 314.989 278.052 314.915 277.756 314.915Z" fill="white"/>
<path d="M244.989 347.518H188.807C192.735 323.377 191.831 294.226 188.807 262.876H244.989C242.045 294.226 241.166 323.377 244.989 347.518Z" fill="#42A953"/>
<path d="M217.237 318.279C224.713 318.279 230.774 311.389 230.774 302.89C230.774 294.39 224.713 287.5 217.237 287.5C209.76 287.5 203.699 294.39 203.699 302.89C203.699 311.389 209.76 318.279 217.237 318.279Z" fill="white"/>
<path d="M15.1909 81.1369L27.8032 79.8334L35.8296 57.676L21.4974 48.5518L15.1909 81.1369Z" fill="#FFB8B8"/>
<path d="M130.94 141.966C131.359 140.777 131.524 139.492 131.421 138.217C131.317 136.941 130.949 135.712 130.345 134.63C129.742 133.548 128.921 132.644 127.951 131.994C126.98 131.343 125.887 130.964 124.762 130.888L105.18 129.561L102.296 140.46L122.456 146.754C124.14 147.28 125.936 147.082 127.501 146.199C129.066 145.316 130.29 143.81 130.94 141.966Z" fill="#FFB8B8"/>
<path d="M109.912 146.937L109.697 126.485L66.1996 118.595L32.69 74.9062C30.9465 72.6331 28.5374 71.1554 25.9089 70.7468C23.2804 70.3382 20.6108 71.0265 18.3945 72.684C17.0526 73.6876 15.921 75.014 15.0796 76.5694C14.2383 78.1248 13.7077 79.8714 13.5254 81.6856C13.3432 83.4997 13.5136 85.3373 14.0248 87.0683C14.536 88.7993 15.3754 90.3816 16.4836 91.7033L44.1288 130.378L109.912 146.937Z" fill="#153C1B"/>
<path d="M5.44482 377.012H16.9107L45.3503 230.843L74.8132 275.998L92.012 373.754H102.905L100.611 268.829L62.2008 156.735H24.3635C14.0235 178.008 5.91224 199.936 15.1908 222.558L5.44482 377.012Z" fill="#00FD27"/>
<path d="M84.9834 385.89C84.8566 386.352 84.8177 386.838 84.8693 387.318C84.9208 387.797 85.0617 388.259 85.2824 388.672C85.5032 389.085 85.7988 389.439 86.1495 389.712C86.5003 389.985 86.8982 390.17 87.3167 390.254L115.374 395.914C116.482 396.145 117.627 395.907 118.592 395.244C119.556 394.581 120.274 393.541 120.611 392.318C120.938 391.149 120.892 389.887 120.482 388.753C120.071 387.619 119.322 386.685 118.367 386.116C112.198 382.516 106.888 377.268 102.894 370.824C99.8102 374.088 96.3636 373.781 92.7037 371.376L88.8218 371.927L84.9834 385.89Z" fill="#153C1B"/>
<path d="M0.136219 385.89C0.00944338 386.352 -0.0294624 386.838 0.0221043 387.318C0.073671 387.797 0.214518 388.259 0.435273 388.672C0.656027 389.085 0.951625 389.439 1.30238 389.712C1.65313 389.985 2.05099 390.17 2.46948 390.254L30.5265 395.914C31.6352 396.145 32.7798 395.907 33.7444 395.244C34.7091 394.581 35.4272 393.541 35.7634 392.318C36.0904 391.149 36.0448 389.887 35.6344 388.753C35.2241 387.619 34.4753 386.685 33.5197 386.116C27.3505 382.516 22.0412 377.268 18.0467 370.824C14.963 374.088 11.5165 373.781 7.85657 371.376L3.97463 371.927L0.136219 385.89Z" fill="#153C1B"/>
<path d="M36.1161 65.8227C44.9815 65.8227 52.1683 57.6529 52.1683 47.5749C52.1683 37.497 44.9815 29.3271 36.1161 29.3271C27.2508 29.3271 20.064 37.497 20.064 47.5749C20.064 57.6529 27.2508 65.8227 36.1161 65.8227Z" fill="#FFB8B8"/>
<path d="M21.7841 161.623L63.6344 160.32L51.3439 116.347C58.9819 102.428 51.2949 88.5225 40.4161 74.6203L31.8167 68.1032L18.0577 66.7998C12.1005 74.046 8.84099 83.6316 8.96173 93.5486C9.23416 114.785 12.5419 137.902 21.7841 161.623Z" fill="#153C1B"/>
<path d="M117.937 191.221C118.734 190.316 119.33 189.208 119.676 187.989C120.023 186.77 120.109 185.475 119.929 184.21C119.749 182.946 119.307 181.748 118.64 180.716C117.972 179.684 117.099 178.847 116.091 178.274L98.5466 168.296L92.124 177.027L108.48 191.828C109.847 193.065 111.566 193.687 113.31 193.575C115.054 193.463 116.701 192.625 117.937 191.221Z" fill="#FFB8B8"/>
<path d="M96.8851 186.388L103.765 167.488L66.5047 140.783L50.8156 85.6311C49.9993 82.7616 48.2958 80.3257 46.0206 78.7746C43.7455 77.2235 41.0529 76.6624 38.4417 77.1952C36.8607 77.5178 35.3613 78.2311 34.0496 79.2849C32.7378 80.3387 31.6456 81.7071 30.8502 83.2935C30.0549 84.8799 29.5757 86.6455 29.4466 88.4656C29.3175 90.2856 29.5417 92.1157 30.1032 93.8264L42.1357 141.746L96.8851 186.388Z" fill="#153C1B"/>
<path d="M9.74463 40.4059C9.74463 47.5062 13.801 58.5021 18.9173 63.2157C22.3598 66.3871 26.9092 66.2535 28.6633 61.9123C30.4626 57.4588 36.6651 46.9909 47.5819 40.4059C62.1347 31.6277 42.421 16.6096 28.6633 18.8996C18.325 20.6204 9.74463 28.5283 9.74463 40.4059Z" fill="#2F2E41"/>
<path d="M19.4907 30.6298C25.8232 30.6298 30.9566 24.7942 30.9566 17.5957C30.9566 10.3971 25.8232 4.56152 19.4907 4.56152C13.1583 4.56152 8.0249 10.3971 8.0249 17.5957C8.0249 24.7942 13.1583 30.6298 19.4907 30.6298Z" fill="#2F2E41"/>
<path d="M32.6767 13.0341C32.6756 9.74812 31.582 6.584 29.6151 4.17596C27.6482 1.76793 24.9534 0.293904 22.0708 0.0493506C22.3557 0.0252503 22.6405 0 22.9307 0C25.9717 0 28.888 1.37323 31.0383 3.81761C33.1886 6.26198 34.3966 9.57727 34.3966 13.0341C34.3966 16.491 33.1886 19.8063 31.0383 22.2506C28.888 24.695 25.9717 26.0683 22.9307 26.0683C22.6405 26.0683 22.3557 26.043 22.0708 26.0189C24.9534 25.7743 27.6482 24.3003 29.6151 21.8923C31.582 19.4842 32.6756 16.3201 32.6767 13.0341Z" fill="#2F2E41"/>
<path d="M36.403 54.092C37.8278 54.092 38.9829 52.3413 38.9829 50.1817C38.9829 48.0221 37.8278 46.2715 36.403 46.2715C34.9783 46.2715 33.8232 48.0221 33.8232 50.1817C33.8232 52.3413 34.9783 54.092 36.403 54.092Z" fill="#FFB8B8"/>
<path d="M361.266 353.108H182.779L144.982 149.994H112.726V140.881H151.481L189.277 343.994H361.266V353.108Z" fill="#0E3114"/>
<path d="M208.935 390.216C218.424 390.216 226.115 381.472 226.115 370.685C226.115 359.899 218.424 351.155 208.935 351.155C199.447 351.155 191.755 359.899 191.755 370.685C191.755 381.472 199.447 390.216 208.935 390.216Z" fill="#0E3114"/>
<path d="M337.214 390.216C346.703 390.216 354.395 381.472 354.395 370.685C354.395 359.899 346.703 351.155 337.214 351.155C327.726 351.155 320.034 359.899 320.034 370.685C320.034 381.472 327.726 390.216 337.214 390.216Z" fill="#0E3114"/>
<path d="M358.013 348.817H184.354L153.714 176.687H386.767C387.956 176.687 389.131 176.98 390.211 177.545C391.291 178.111 392.251 178.936 393.024 179.963C393.797 180.991 394.365 182.196 394.689 183.497C395.013 184.797 395.085 186.162 394.901 187.498L366.145 340.911C365.849 343.118 364.864 345.131 363.371 346.582C361.879 348.033 359.977 348.826 358.013 348.817ZM186.24 346.213H358.013C359.43 346.22 360.803 345.647 361.88 344.6C362.957 343.552 363.668 342.1 363.881 340.507L392.637 187.094C392.77 186.13 392.718 185.144 392.484 184.206C392.251 183.267 391.841 182.397 391.283 181.655C390.725 180.913 390.032 180.318 389.253 179.91C388.473 179.502 387.625 179.29 386.767 179.291H156.494L186.24 346.213Z" fill="#0E3114"/>
<path d="M218.114 348.266L198.048 178.201L200.308 177.776L220.374 347.842L218.114 348.266Z" fill="#0E3114"/>
<path d="M329.688 346.961L327.426 346.544L346.906 177.78L349.168 178.197L329.688 346.961Z" fill="#0E3114"/>
<path d="M276.528 177.988H274.238V348.054H276.528V177.988Z" fill="#0E3114"/>
<path d="M165.415 223.558L165.409 226.162L387.146 226.772L387.151 224.168L165.415 223.558Z" fill="#0E3114"/>
<path d="M371.504 304L176.704 305.514L176.719 308.118L371.52 306.604L371.504 304Z" fill="#0E3114"/>
<path d="M116.162 151.948C123.12 151.948 128.761 148.451 128.761 144.136C128.761 139.822 123.12 136.324 116.162 136.324C109.204 136.324 103.563 139.822 103.563 144.136C103.563 148.451 109.204 151.948 116.162 151.948Z" fill="#0E3114"/>
</svg>
